<?xml version="1.0" encoding="utf-8"?>
<!-- Generator: Adobe Illustrator 25.4.1, SVG Export Plug-In . SVG Version: 6.00 Build 0)  -->
<svg version="1.1" id="Artwork" xmlns="http://www.w3.org/2000/svg" xmlns:xlink="http://www.w3.org/1999/xlink" x="0px" y="0px"
	 viewBox="0 0 1240.77 654.33" enable-background="new 0 0 1240.77 654.33" xml:space="preserve">
<g id="Bolesworth-Mark">
	<path id="Bolesworth_logo_type" fill="#FFFFFF" d="M173.16,532.3c-17.15,0-31.6,5.88-43.37,17.64s-17.65,26.22-17.64,43.37
		c0,17.5,5.91,32.04,17.72,43.63s26.24,17.38,43.29,17.39c17.05,0,31.48-5.82,43.29-17.47c11.81-11.65,17.72-26.16,17.73-43.55
		c0-17.5-5.88-32.04-17.64-43.63S190.32,532.3,173.16,532.3z M201.37,623.05c-7.58,7.67-16.98,11.51-28.21,11.51
		c-10.51,0.17-20.63-4.01-27.95-11.56c-7.73-7.73-11.6-17.62-11.59-29.66c0-12.15,3.86-22.06,11.59-29.74
		c15.45-15.37,40.42-15.33,55.82,0.09c7.78,7.72,11.67,17.6,11.67,29.65C212.7,605.48,208.92,615.38,201.37,623.05z M990.37,592.46
		c4.76-6.2,7.28-13.83,7.16-21.64c0.06-4.76-0.69-9.49-2.21-14c-1.58-4.36-4.05-8.33-7.25-11.68c-3.33-3.57-8.19-6.38-14.57-8.43
		s-14.05-3.08-23-3.07h-46.85V653h20.62v-43.84h25.23L982.05,653h25.06l-35.79-47.73c7.6-2.04,14.31-6.55,19.08-12.81L990.37,592.46
		z M969.37,584.71c-4.43,3.33-10.57,5-18.41,5h-26.69v-36.62H950c9.54,0,16.27,1.53,20.2,4.6c3.93,3.07,5.89,7.44,5.88,13.13
		c0.01,5.9-2.21,10.53-6.64,13.89L969.37,584.71z M77.89,590.25c9.54-5.8,14.31-14.66,14.32-26.59c0-9.43-3.18-16.78-9.55-22.07
		s-17.03-7.93-32-7.93H0V653h49.6c14.54,0,25.96-2.84,34.26-8.53s12.45-14.44,12.44-26.27C96.3,603.4,90.16,594.08,77.89,590.25z
		 M20.62,553.09h27.27c8.52,0,14.49,1.22,17.9,3.66c3.41,2.44,5.12,6.28,5.11,11.51c0.14,4.25-1.92,8.28-5.45,10.65
		c-3.64,2.56-8.75,3.84-15.34,3.84H20.62V553.09z M68.52,629.62c-4.21,2.61-10.97,3.92-20.29,3.92H20.62v-32h29
		c8.97,0,15.41,1.25,19.34,3.75c3.93,2.5,5.88,6.4,5.86,11.71C74.82,622.8,72.72,627.01,68.52,629.62z M1220.15,533.62v49.26h-62.55
		v-49.22H1137V653h20.62v-50.65h62.55V653h20.62V533.66L1220.15,533.62z M1013.92,553.05H1054V653h20.62v-99.91h40.05v-19.43
		h-100.75L1013.92,553.05z M821.67,532.3c-17.16,0-31.62,5.88-43.37,17.64c-11.75,11.76-17.64,26.22-17.65,43.37
		c0,17.5,5.91,32.04,17.73,43.63c11.82,11.59,26.25,17.38,43.29,17.39c17.05,0,31.48-5.82,43.29-17.47
		c11.81-11.65,17.72-26.16,17.73-43.55c0-17.5-5.88-32.04-17.64-43.63S838.83,532.3,821.67,532.3z M849.88,623.05
		c-7.56,7.67-16.96,11.51-28.21,11.51c-10.51,0.17-20.63-4.01-27.95-11.56c-7.73-7.73-11.6-17.62-11.59-29.66
		c0-12.15,3.86-22.06,11.59-29.74c15.45-15.37,40.42-15.33,55.82,0.09c7.78,7.72,11.67,17.6,11.67,29.65
		C861.21,605.48,857.43,615.38,849.88,623.05z M275.77,533.66h-20.63V653h88.29v-19.46h-67.66V533.66z M555.45,591
		c-5.45-2.21-11.36-4.26-17.73-6.13c-6.37-1.87-12.27-3.41-17.72-4.6c-4.85-0.94-9.48-2.79-13.64-5.45
		c-3.63-2.44-5.44-5.54-5.45-9.29c0-4.67,2.39-8.16,7.16-10.48s10.68-3.48,17.72-3.49c13.64,0,25.46,4.15,35.45,12.44l11.25-14.66
		c-11.13-11.33-26.52-17-46.19-17c-13.52,0-24.68,3.27-33.49,9.8s-13.21,14.49-13.2,23.86c-0.15,5.38,1.27,10.68,4.09,15.26
		c2.62,4.17,6.25,7.61,10.56,10c4.56,2.48,9.36,4.51,14.32,6.05c5.23,1.65,10.45,3.07,15.68,4.26c5.23,1.19,10,2.49,14.32,3.92
		c3.9,1.19,7.5,3.19,10.56,5.88c5.1,4.62,5.48,12.5,0.86,17.6c-0.8,0.88-1.72,1.64-2.73,2.26c-4,2.55-9.57,3.82-16.7,3.83
		c-17.28,0-31.31-5.67-42.1-17l-12.27,14.45c5.22,6.25,12.66,11.45,22.32,15.6c9.52,4.12,19.79,6.24,30.17,6.22
		c12.84,0,23.69-3.3,32.55-9.89s13.29-15.06,13.3-25.39c0.17-6.27-1.75-12.42-5.46-17.47C565.6,596.86,560.88,593.2,555.45,591z
		 M709.86,615.8l-28.29-82.15H664.7l-27.78,82.49l-25.4-82.49h-21.47L627.2,653h17.39l28.29-83L702,653h17.21l35.28-119.31h-20.42
		L709.86,615.8z M387.91,601.8h63.57v-18.71h-63.57v-30h68v-19.43h-88.62V653h90.33v-19.46h-69.71L387.91,601.8z"/>
	<path id="lines" fill="#FFFFFF" d="M56.84,444v16.75h1127.09V444H56.84z M522.26,488.87H686.2V478.3H522.26V488.87z"/>
	<path id="castle" fill="#FFFFFF" d="M332.17,375h15.9v-27h-15.9V375z M332.17,432h15.9v-52h-15.9V432z M304,304.57h4.93V197.72H304
		V304.57z M353,432h15.62v-52H353V432z M353,375h15.62v-27H353V375z M331.75,250.86h16.32V228h-16.32V250.86z M304,432h4.93V309.5
		H304V432z M251.19,228.43H263v-30.71h-11.81V228.43z M251.19,280.31H263v-29.58h-11.85L251.19,280.31z M251.19,321.91H263v-36.67
		h-11.85L251.19,321.91z M353,298.28h15.62v-42.49H353V298.28z M251.15,375H263v-27h-11.85V375z M268,280.31h11.62v-29.58H268
		V280.31z M268,432h11.62v-52H268V432z M268,321.94h11.62v-36.7H268V321.94z M268,375h11.62v-27H268V375z M434,250.86h16.22V228H434
		V250.86z M480.56,432h4.93V30.78h-4.93V432z M506.8,405.39c1.43-1.97,3.09-3.77,4.93-5.37V309.5h-4.93V405.39z M467.44,155.6v14.16
		h-12V155.6c-0.01-1.03-0.84-1.86-1.87-1.86h-7c-1.03,0-1.86,0.83-1.86,1.86v14.16h-12V155.6c0-1.03-0.83-1.86-1.86-1.86h-6.95
		c-1.03-0.02-1.88,0.79-1.9,1.82c0,0.01,0,0.03,0,0.04v14.16h-12V155.6c0-1.03-0.83-1.86-1.86-1.86h-7c-1.03,0-1.86,0.83-1.86,1.86
		v14.16h-12V155.6c-0.01-1.03-0.84-1.86-1.87-1.86h-6.95c-1.03,0-1.86,0.83-1.86,1.86v14.16h-12V155.6c0-1.03-0.83-1.86-1.86-1.86
		h-6.95c-1.03,0-1.86,0.83-1.87,1.86v14.16h-12V155.6c0-1.03-0.83-1.86-1.86-1.86h-7c-1.03,0-1.86,0.83-1.86,1.86v14.16h-12V155.6
		c0-1.03-0.83-1.86-1.86-1.86h-8.38v36.53h164.77v-36.53h-4.43C468.28,153.75,467.45,154.58,467.44,155.6z M353,250.86h15.62V228
		H353V250.86z M524.6,298.28h13.65v-42.49H524.6V298.28z M551.08,153.7h-9.65v16.1h-7.68v-14.24c0-1-1.11-1.86-2.47-1.86h-6.8
		c-1.36,0-2.47,0.83-2.47,1.86v14.24h-7.68v-14.24c0-1-1.1-1.86-2.46-1.86h-0.1v36.61h39.31L551.08,153.7z M524.68,375h13.5v-27
		h-13.5V375z M251.15,432H263v-52h-11.85V432z M506.8,304.57h4.93V30.78h-4.93V304.57z M434,298.28h16.22v-42.49H434V298.28z
		 M413.71,432H429v-52h-15.29V432z M413.3,298.31H429v-42.52h-15.7V298.31z M413.71,375.05H429V348h-15.29V375.05z M434,375h16.22
		v-27H434V375z M413.3,250.86H429V228h-15.7V250.86z M434,432h16.22v-52H434V432z M524.73,393.21c4.41-1.14,9.02-1.31,13.5-0.5V380
		h-13.5V393.21z M551.13,304.6H556V197.72h-4.94L551.13,304.6z M520.21,0h-2.36C516.83,0.01,516,0.84,516,1.86v7.75h-7.17V1.86
		c0-1.02-0.81-1.84-1.83-1.86h-5.37c-1.03,0-1.86,0.83-1.86,1.86v7.75h-7.17V1.86c0-1.03-0.83-1.86-1.86-1.86c-0.01,0-0.03,0-0.04,0
		h-5.36c-1.03,0-1.86,0.83-1.86,1.86v7.75h-7.17V1.86c0-1.03-0.83-1.86-1.86-1.86c0,0,0,0,0,0h-2.36v25.84h48.12V0z M636.85,153.56
		H627c-1.03-0.01-1.86,0.82-1.87,1.85c0,0.01,0,0.01,0,0.02v14.33h-11.32v-14.33c0-1.03-0.84-1.87-1.87-1.87c0,0-0.01,0-0.01,0H604
		c-1.03,0-1.87,0.84-1.87,1.87v14.33h-11.37v-14.33c0-1.03-0.84-1.87-1.87-1.87h-8c-1.03,0-1.87,0.84-1.87,1.87v14.33h-11.31v-14.33
		c0-1.03-0.84-1.87-1.87-1.87H556v16.2l0,0v20.41h80.83L636.85,153.56z M571,141.09v-17.6h-33.81v17.6h10.54l5.41-12.55l5.41,12.55
		H571z M188.89,126.24v-21.82H184v23L188.89,126.24z M218.51,78.82h-1.88c-0.82,0-1.49,0.67-1.49,1.49l0,0v6.2h-5.61v-6.2
		c0-0.82-0.67-1.49-1.49-1.49c-0.01,0-0.03,0-0.04,0h-4.29c-0.82,0-1.49,0.67-1.49,1.49l0,0v6.2h-6v-6.2c0-0.82-0.67-1.49-1.49-1.49
		l0,0h-4.29c-0.8,0.03-1.44,0.69-1.44,1.49v6.2h-5.62v-6.2c0-0.82-0.67-1.49-1.49-1.49l0,0H180v20.67h38.49L218.51,78.82z
		 M641.78,304.57V197.72h-4.93v106.85H641.78z M214.57,127v-22.58h-4.93v21.32L214.57,127z M200.47,132.32l42.62,11.27H258
		l-57.47-15.2l-60,14.88v0.32H155L200.47,132.32z M655.68,141.05v-17.6h-33.83v17.6h10.54l5.41-12.55l5.41,12.55H655.68z
		 M1033.07,127.05v-22.63h-4.93v21.32L1033.07,127.05z M1037.07,78.83h-1.89c-0.82,0-1.49,0.67-1.49,1.49v6.2H1028v-6.2
		c0-0.82-0.67-1.49-1.49-1.49h-4.29c-0.82,0-1.49,0.67-1.49,1.49v6.2h-6v-6.2c0-0.82-0.67-1.49-1.49-1.49H1009
		c-0.82,0-1.49,0.67-1.49,1.49v6.2h-5.61v-6.2c0-0.82-0.67-1.49-1.49-1.49h-1.89v20.66H1037L1037.07,78.83z M1007.45,126.25v-21.83
		h-4.93v23L1007.45,126.25z M1019.03,132.37l42.62,11.27h14.9L1019,128.43l-60,14.88v0.32h14.47L1019.03,132.37z M518.31,104.94
		h156.25V76.07H667c-1.03,0.01-1.86,0.84-1.86,1.87v9.11h-13.66v-9.12c-0.01-1.02-0.84-1.85-1.86-1.86h-7
		c-1.03,0-1.86,0.83-1.86,1.86v9.12h-13.63v-9.12c-0.01-1.03-0.84-1.86-1.87-1.86h-7c-1.03,0-1.86,0.83-1.86,1.86v9.12h-13.63v-9.12
		c0-1.03-0.83-1.86-1.86-1.86H594c-1.03,0-1.86,0.83-1.86,1.86v9.12h-13.72v-9.12c0-1.03-0.83-1.86-1.86-1.86h-8.7
		c-1.02,0.01-1.85,0.84-1.86,1.86v9.12h-13.68v-9.11c0-1.03-0.83-1.86-1.86-1.87h-7c-1.03,0.01-1.86,0.84-1.86,1.87v9.11H528v-9.11
		c0-1.03-0.83-1.86-1.86-1.87h-7.8L518.31,104.94z M720.78,0h-2.36c-1.03,0-1.86,0.83-1.86,1.86v7.75h-7V1.86
		c0-1.03-0.83-1.86-1.86-1.86c0,0-0.01,0-0.01,0h-5.37c-1.03,0-1.86,0.83-1.86,1.86v7.75H693V1.86c0-1.03-0.83-1.86-1.86-1.86
		c-0.01,0-0.01,0-0.02,0h-5.36c-1.03,0-1.86,0.83-1.86,1.86v7.75h-7V1.86c0-1.03-0.83-1.86-1.86-1.86c-0.01,0-0.03,0-0.04,0h-2.36
		v25.84h48.12L720.78,0z M183.34,375h16v-27h-16V375z M162.44,432h16v-52h-16V432z M162.49,228.46h15.92v-30.74h-15.92V228.46z
		 M162.44,280.34h16v-29.61h-16V280.34z M162.44,375.05h16V348h-16V375.05z M162.44,321.94h16v-36.7h-16V321.94z M183.34,321.94h16
		v-36.7h-16V321.94z M183.34,432h16v-52h-16V432z M183.34,280.34h16v-29.61h-16V280.34z M110.6,197.72H99.2v30.71h11.4V197.72z
		 M199.26,228.43v-30.71h-15.92v30.71H199.26z M279.53,228.43v-30.71H268v30.71H279.53z M110.6,285.24H99.2v36.67h11.4V285.24z
		 M99.2,432h11.4v-52H99.2V432z M99.2,375h11.4v-27H99.2V375z M304,153.6h-4.41c-0.82,0-1.49,0.67-1.49,1.49v14.53H289v-14.53
		c0-0.82-0.67-1.49-1.49-1.49h-7.7c-0.82,0-1.49,0.67-1.49,1.49v14.53h-11v-14.53c0-0.82-0.67-1.49-1.49-1.49h-7.69
		c-0.82,0-1.49,0.67-1.49,1.49v14.53h-13.87v-14.53c0-0.82-0.67-1.49-1.49-1.49c0,0,0,0,0,0h-7.69c-0.82,0-1.49,0.67-1.5,1.49v14.53
		h-13.59v-14.53c0-0.82-0.67-1.49-1.49-1.49c-0.01,0-0.01,0-0.02,0h-7.7c-0.82,0-1.49,0.67-1.49,1.49c0,0,0,0,0,0v14.53h-14.22
		v-14.53c0-0.82-0.67-1.49-1.49-1.49c0,0,0,0,0,0h-7.69c-0.82,0-1.49,0.67-1.49,1.49c0,0,0,0,0,0v14.53H170v-14.53
		c-0.01-0.82-0.68-1.49-1.5-1.49h-7.69c-0.82,0-1.49,0.67-1.49,1.49c0,0,0,0,0,0v14.53H147.9v-14.53c0-0.82-0.67-1.49-1.49-1.49
		c0,0,0,0,0,0h-6.47c-0.82,0-1.49,0.67-1.49,1.49c0,0,0,0,0,0v14.53h-10.7v-14.53c0-0.82-0.67-1.49-1.49-1.49l0,0h-6.47
		c-0.82,0-1.49,0.67-1.5,1.49v14.53h-5.88v-14.53c0-0.82-0.67-1.49-1.49-1.49l0,0h-3c-0.82,0-1.49,0.67-1.5,1.49v14.53H103v-14.53
		c0-0.83-0.67-1.5-1.5-1.5s-1.5,0.67-1.5,1.5v14.53h-2.61v-14.53c0-0.82-0.67-1.49-1.49-1.49l0,0h-1.32v36.52H304V153.6z
		 M110.6,250.73H99.2v29.58h11.4V250.73z M331.75,298.28h16.32v-42.49h-16.32V298.28z M934.41,298.28h12v-42.49h-12V298.28z
		 M917.49,298.28h12v-42.49h-12V298.28z M934.41,375h12v-27h-12V375z M917.49,250.86h12V228h-12V250.86z M934.41,432h12v-52h-12V432
		z M946.41,228h-12v22.9h12V228z M974.59,432h4.93V309.5h-4.93V432z M965.66,155.6v14.16h-9.84V155.6c0-1.03-0.83-1.86-1.86-1.86h-7
		c-1.03,0-1.86,0.83-1.86,1.86v14.16h-9.84V155.6c-0.01-1.02-0.84-1.85-1.86-1.86h-6.07c-1.03,0-1.86,0.83-1.86,1.86v14.16h-9.84
		V155.6c0-1.03-0.83-1.86-1.86-1.86h-5.14c-1.02,0.01-1.85,0.84-1.86,1.86v14.16H897V155.6c0-1.03-0.83-1.86-1.86-1.86h-5.77v36.53
		h85.24v-36.53h-7.06c-1.03-0.01-1.88,0.82-1.89,1.85C965.66,155.59,965.66,155.6,965.66,155.6z M917.85,432h11.63v-52h-11.63V432z
		 M844.53,298.28h16.32v-42.49h-16.32V298.28z M844.53,375.02h15.91V348h-15.91V375.02z M917.85,375.02h11.63V348h-11.63
		L917.85,375.02z M844.53,250.86h16.32V228h-16.32V250.86z M974.59,304.57h4.93V197.72h-4.93V304.57z M884.41,432h4.94V309.5h-4.94
		V432z M884.41,304.6h4.94V197.72h-4.94V304.6z M1087.76,304.6h4.93V197.72h-4.93V304.6z M844.53,432h15.91v-52h-15.91V432z
		 M524.6,250.86h13.65V228H524.6V250.86z M1111.52,298.28h15.75v-42.49h-15.75V298.28z M1087.76,432h4.93V309.5h-4.93V432z
		 M1111.61,432h15.75v-52h-15.75V432z M1036.11,250.89h16V228h-16V250.89z M1146,153.74h-4.13c-1.03,0-1.87,0.84-1.87,1.87v13.94
		c0,0.12-0.09,0.21-0.21,0.21h-5.19c-0.12,0-0.21-0.09-0.21-0.21v-13.94c0-1.03-0.84-1.87-1.87-1.87H1130
		c-1.03,0-1.87,0.84-1.87,1.87v14.15h-5.61v-14.15c0-1.03-0.84-1.87-1.87-1.87h-2.47c-1.03,0-1.87,0.84-1.87,1.87v14.15h-5.62
		v-14.15c0-1.03-0.84-1.87-1.87-1.87h-2.46c-1.03,0-1.87,0.84-1.88,1.87v14.15h-5.61v-14.15c0-1.03-0.84-1.87-1.87-1.87
		c0,0-4.34-0.11-4.34,0v36.52h53.5V154c0.03-0.11-0.04-0.23-0.15-0.26C1146.01,153.74,1146,153.74,1146,153.74z M1087.78,153.74
		H1081c-1.03,0-1.87,0.84-1.87,1.87v14.15h-14.23v-14.19c0-1.03-0.84-1.87-1.87-1.87h-6.93c-1.03,0-1.87,0.84-1.87,1.87v14.15H1040
		v-14.15c0-1.03-0.84-1.87-1.87-1.87h-6.93c-1.03,0-1.87,0.84-1.87,1.87v14.15h-14.23v-14.15c0-1.03-0.84-1.87-1.87-1.87h-6.93
		c-1.03,0-1.87,0.84-1.87,1.87v14.15h-14.25v-14.15c0-1.03-0.84-1.87-1.87-1.87h-8.79v36.52h108.24L1087.78,153.74z M1111.61,375
		h15.75v-27h-15.75V375z M1015.2,375h16v-27h-16V375z M1015.2,431.94h16V380h-16V431.94z M1015.2,298.26h16v-42.47h-16V298.26z
		 M1036.11,375h15.55v-27h-15.55V375z M1036.11,298.26h16v-42.47h-16V298.26z M1036.11,431.94h15.55V380h-15.55V431.94z
		 M1015.2,250.84h16V228h-16L1015.2,250.84z M1127.27,228h-15.75v22.9h15.75V228z M636.85,309.5l-1.69,8.1h8.32l-1.69-8.1H636.85z
		 M598.9,375h20.31v-27H598.9V375z M598.9,250.84h20.83V228H598.9V250.84z M654.62,250.84h13.65V228h-13.65V250.84z M636.85,402.39
		c1.49-1.6,3.15-3.05,4.93-4.32V323.8h-4.93V402.39z M654.62,298.28h13.65v-42.49h-13.65V298.28z M654.69,392.68
		c4.48-0.81,9.09-0.64,13.5,0.5V380h-13.5V392.68z M654.69,375.02h13.5V348h-13.5V375.02z M598.9,298.28h20.83v-42.49H598.9V298.28z
		 M550.51,309.5l-1.12,8.1h8.32l-1.12-8.1H550.51z M573.65,432H594v-52h-20.35V432z M551.08,398.1c1.79,1.27,3.44,2.72,4.94,4.32
		v-77.64h-4.94V398.1z M573.65,375H594v-27h-20.35V375z M573.13,250.84H594V228h-20.87V250.84z M598.9,432h20.31v-52H598.9V432z
		 M573.13,298.28H594v-42.49h-20.87V298.28z M678.54,155.42v14.24h-7.68v-14.24c0-1-1.11-1.86-2.47-1.86h-6.8
		c-1.36,0-2.47,0.83-2.47,1.86v14.24h-7.68v-16.1h-9.66v36.61h39.32v-36.61H681C679.64,153.56,678.54,154.39,678.54,155.42z
		 M763.59,298.28h15.72v-42.49h-15.72L763.59,298.28z M763.59,375.02h15.3V348h-15.3V375.02z M742.44,250.86h16.22V228h-16.22
		V250.86z M763.59,250.86h15.72V228h-15.72V250.86z M763.59,431.97h15.3V380h-15.3V431.97z M824,432h15.6v-52H824V432z M824,298.31
		h15.6v-42.52H824V298.31z M824,375h15.6v-27H824V375z M707.37,304.57h4.94V30.78h-4.94V304.57z M742.44,298.28h16.22v-42.49h-16.22
		V298.28z M707.37,432h4.94V309.5h-4.94V432z M681.14,400c1.84,1.6,3.49,3.4,4.93,5.37V30.78h-4.93V400z M824,250.86h15.6V228H824
		V250.86z M884.43,153.74h-9.07c-1.02,0.01-1.85,0.84-1.86,1.86v14.16h-12V155.6c-0.01-1.02-0.84-1.85-1.86-1.86h-7
		c-1.03,0-1.86,0.83-1.86,1.86v14.16h-12V155.6c0-1.03-0.83-1.86-1.86-1.86h-7c-1.03,0-1.86,0.83-1.86,1.86v14.16H816V155.6
		c0-1.03-0.83-1.86-1.86-1.86h-7c-1.02,0.01-1.85,0.84-1.86,1.86v14.16h-12V155.6c-0.01-1.03-0.84-1.86-1.87-1.86h-7
		c-1.03,0-1.86,0.83-1.86,1.86v14.16h-12V155.6c0-1.03-0.83-1.86-1.86-1.86h-7c-1.03,0-1.86,0.83-1.86,1.86v14.16h-12V155.6
		c0-1.03-0.83-1.86-1.86-1.86h-7c-1.03,0-1.86,0.83-1.86,1.86v14.16h-12V155.6c0-1.03-0.83-1.86-1.86-1.86h-4.42v36.53h165.58
		L884.43,153.74z M742.44,375h16.22v-27h-16.22V375z M742.44,432h16.22v-52h-16.22V432z"/>
</g>
</svg>
