<svg id="Artwork" xmlns="http://www.w3.org/2000/svg" viewBox="0 0 1240.77 654.33"><defs><style>.cls-1{fill:#fff;}</style></defs><title>Artboard 2</title><g id="Bolesworth-Mark"><path id="Bolesworth_logo_type" data-name="Bolesworth logo type" class="cls-1" d="M173.16,532.3q-25.72,0-43.37,17.64t-17.64,43.37q0,26.25,17.72,43.63t43.29,17.39q25.58,0,43.29-17.47t17.73-43.55q0-26.25-17.64-43.63T173.16,532.3Zm28.21,90.75Q190,634.56,173.16,634.56A38.08,38.08,0,0,1,145.21,623q-11.6-11.6-11.59-29.66,0-18.22,11.59-29.74a39.51,39.51,0,0,1,55.82.09q11.67,11.58,11.67,29.65Q212.7,611.55,201.37,623.05Zm789-30.59a34.63,34.63,0,0,0,7.16-21.64,42.09,42.09,0,0,0-2.21-14,33.22,33.22,0,0,0-7.25-11.68q-5-5.35-14.57-8.43t-23-3.07H903.65V653h20.62V609.16H949.5L982.05,653h25.06l-35.79-47.73A35.57,35.57,0,0,0,990.4,592.46Zm-21-7.75q-6.65,5-18.41,5H924.27V553.09H950q14.31,0,20.2,4.6t5.88,13.13Q976.09,579.67,969.44,584.71ZM77.89,590.25q14.31-8.7,14.32-26.59,0-14.14-9.55-22.07t-32-7.93H0V653H49.6q21.81,0,34.26-8.53T96.3,618.2Q96.3,596,77.89,590.25ZM20.62,553.09H47.89q12.78,0,17.9,3.66t5.11,11.51a12.32,12.32,0,0,1-5.45,10.65q-5.46,3.84-15.34,3.84H20.62Zm47.9,76.53q-6.31,3.92-20.29,3.92H20.62v-32h29q13.45,0,19.34,3.75T74.82,617Q74.82,625.7,68.52,629.62Zm1151.63-96v49.26H1157.6V533.66H1137V653h20.62V602.35h62.55V653h20.62V533.66Zm-206.23,19.43H1054V653h20.62V553.09h40.05V533.66H1013.92ZM821.67,532.3q-25.74,0-43.37,17.64t-17.65,43.37q0,26.25,17.73,43.63t43.29,17.39q25.58,0,43.29-17.47t17.73-43.55q0-26.25-17.64-43.63T821.67,532.3Zm28.21,90.75q-11.34,11.51-28.21,11.51A38.08,38.08,0,0,1,793.72,623q-11.6-11.6-11.59-29.66,0-18.22,11.59-29.74a39.51,39.51,0,0,1,55.82.09q11.67,11.58,11.67,29.65Q861.21,611.55,849.88,623.05ZM275.77,533.66H255.14V653h88.29V633.54H275.77ZM555.45,591q-8.18-3.32-17.73-6.13T520,580.27a39.36,39.36,0,0,1-13.64-5.45q-5.44-3.66-5.45-9.29,0-7,7.16-10.48t17.72-3.49q20.46,0,35.45,12.44l11.25-14.66q-16.69-17-46.19-17-20.28,0-33.49,9.8T479.61,566a27.68,27.68,0,0,0,4.09,15.26,29.14,29.14,0,0,0,10.56,10,78.6,78.6,0,0,0,14.32,6.05q7.84,2.48,15.68,4.26t14.32,3.92a28.6,28.6,0,0,1,10.56,5.88,12.46,12.46,0,0,1-1.87,19.86q-6,3.82-16.7,3.83-25.92,0-42.1-17L476.2,632.51q7.83,9.38,22.32,15.6a75.67,75.67,0,0,0,30.17,6.22q19.26,0,32.55-9.89t13.3-25.39a28.19,28.19,0,0,0-5.46-17.47A31.8,31.8,0,0,0,555.45,591Zm154.41,24.8-28.29-82.15H664.7l-27.78,82.49-25.4-82.49H590.05L627.2,653h17.39l28.29-83L702,653h17.21l35.28-119.31H734.07Zm-321.95-14h63.57V583.09H387.91v-30h68V533.66H367.29V653h90.33V633.54H387.91Z"/><path id="lines" class="cls-1" d="M56.84,444v16.75H1183.93V444Zm465.42,44.87H686.2V478.3H522.26Z"/><path id="castle" class="cls-1" d="M332.17,375h15.9V348h-15.9Zm0,57h15.9V380h-15.9ZM304,304.57h4.93V197.72H304ZM353,432h15.62V380H353Zm0-57h15.62V348H353ZM331.75,250.86h16.32V228H331.75ZM304,432h4.93V309.5H304ZM251.19,228.43H263V197.72H251.19Zm0,51.88H263V250.73H251.15Zm0,41.6H263V285.24H251.15ZM353,298.28h15.62V255.79H353ZM251.15,375H263V348H251.15ZM268,280.31h11.62V250.73H268ZM268,432h11.62V380H268Zm0-110.06h11.62V285.24H268ZM268,375h11.62V348H268ZM434,250.86h16.22V228H434ZM480.56,432h4.93V30.78h-4.93Zm26.24-26.61a32.18,32.18,0,0,1,4.93-5.37V309.5H506.8ZM467.44,155.6v14.16h-12V155.6a1.87,1.87,0,0,0-1.87-1.86h-7a1.86,1.86,0,0,0-1.86,1.86v14.16h-12V155.6a1.86,1.86,0,0,0-1.86-1.86h-6.95A1.86,1.86,0,0,0,422,155.6v14.16H410V155.6a1.86,1.86,0,0,0-1.86-1.86h-7a1.86,1.86,0,0,0-1.86,1.86v14.16h-12V155.6a1.87,1.87,0,0,0-1.87-1.86h-6.95a1.86,1.86,0,0,0-1.86,1.86v14.16h-12V155.6a1.86,1.86,0,0,0-1.86-1.86h-6.95a1.87,1.87,0,0,0-1.87,1.86v14.16h-12V155.6a1.86,1.86,0,0,0-1.86-1.86h-7a1.86,1.86,0,0,0-1.86,1.86v14.16h-12V155.6a1.86,1.86,0,0,0-1.86-1.86h-8.38v36.53H473.73V153.74H469.3A1.87,1.87,0,0,0,467.44,155.6ZM353,250.86h15.62V228H353ZM524.6,298.28h13.65V255.79H524.6ZM551.08,153.7h-9.65v16.1h-7.68V155.56c0-1-1.11-1.86-2.47-1.86h-6.8c-1.36,0-2.47.83-2.47,1.86V169.8h-7.68V155.56c0-1-1.1-1.86-2.46-1.86h-.1v36.61h39.31ZM524.68,375h13.5V348h-13.5ZM251.15,432H263V380H251.15ZM506.8,304.57h4.93V30.78H506.8ZM434,298.28h16.22V255.79H434ZM413.71,432H429V380H413.71Zm-.41-133.69H429V255.79H413.3Zm.41,76.74H429V348H413.71ZM434,375h16.22V348H434ZM413.3,250.86H429V228H413.3ZM434,432h16.22V380H434Zm90.73-38.79a31.66,31.66,0,0,1,13.5-.5V380h-13.5Zm26.4-88.61H556V197.72h-4.94ZM520.21,0h-2.36A1.86,1.86,0,0,0,516,1.86V9.61h-7.17V1.86A1.86,1.86,0,0,0,507,0h-5.37a1.86,1.86,0,0,0-1.86,1.86V9.61h-7.17V1.86A1.86,1.86,0,0,0,490.7,0h-5.36a1.86,1.86,0,0,0-1.86,1.86V9.61h-7.17V1.86A1.86,1.86,0,0,0,474.45,0h-2.36V25.84h48.12ZM636.85,153.56H627a1.86,1.86,0,0,0-1.87,1.87v14.33H613.81V155.43a1.87,1.87,0,0,0-1.88-1.87H604a1.87,1.87,0,0,0-1.87,1.87v14.33H590.76V155.43a1.87,1.87,0,0,0-1.87-1.87h-8a1.87,1.87,0,0,0-1.87,1.87v14.33H567.71V155.43a1.87,1.87,0,0,0-1.87-1.87H556v16.2h0v20.41h80.83ZM571,141.09v-17.6H537.19v17.6h10.54l5.41-12.55,5.41,12.55ZM188.89,126.24V104.42H184v23Zm29.62-47.42h-1.88a1.49,1.49,0,0,0-1.49,1.49v6.2h-5.61v-6.2A1.49,1.49,0,0,0,208,78.82h-4.29a1.49,1.49,0,0,0-1.49,1.49v6.2h-6v-6.2a1.49,1.49,0,0,0-1.49-1.49h-4.29A1.49,1.49,0,0,0,189,80.31v6.2h-5.62v-6.2a1.49,1.49,0,0,0-1.49-1.49H180V99.49h38.49ZM641.78,304.57V197.72h-4.93V304.57ZM214.57,127V104.42h-4.93v21.32Zm-14.1,5.32,42.62,11.27H258l-57.47-15.2-60,14.88v.32H155Zm455.21,8.73v-17.6H621.85v17.6h10.54l5.41-12.55,5.41,12.55Zm377.39-14V104.42h-4.93v21.32Zm4-48.22h-1.89a1.49,1.49,0,0,0-1.49,1.49v6.2H1028v-6.2a1.49,1.49,0,0,0-1.49-1.49h-4.29a1.49,1.49,0,0,0-1.49,1.49v6.2h-6v-6.2a1.49,1.49,0,0,0-1.49-1.49H1009a1.49,1.49,0,0,0-1.49,1.49v6.2h-5.61v-6.2a1.49,1.49,0,0,0-1.49-1.49h-1.89V99.49H1037Zm-29.62,47.42V104.42h-4.93v23Zm11.58,6.12,42.62,11.27h14.9L1019,128.43l-60,14.88v.32h14.47ZM518.31,104.94H674.56V76.07H667a1.87,1.87,0,0,0-1.86,1.87v9.11H651.48V77.93a1.87,1.87,0,0,0-1.86-1.86h-7a1.86,1.86,0,0,0-1.86,1.86v9.12H627.13V77.93a1.87,1.87,0,0,0-1.87-1.86h-7a1.86,1.86,0,0,0-1.86,1.86v9.12H602.77V77.93a1.86,1.86,0,0,0-1.86-1.86H594a1.86,1.86,0,0,0-1.86,1.86v9.12H578.42V77.93a1.86,1.86,0,0,0-1.86-1.86h-8.7A1.87,1.87,0,0,0,566,77.93v9.12H552.32V77.94a1.87,1.87,0,0,0-1.86-1.87h-7a1.87,1.87,0,0,0-1.86,1.87v9.11H528V77.94a1.87,1.87,0,0,0-1.86-1.87h-7.8ZM720.78,0h-2.36a1.86,1.86,0,0,0-1.86,1.86V9.61h-7V1.86A1.86,1.86,0,0,0,707.69,0h-5.37a1.86,1.86,0,0,0-1.86,1.86V9.61H693V1.86A1.86,1.86,0,0,0,691.12,0h-5.36a1.86,1.86,0,0,0-1.86,1.86V9.61h-7V1.86A1.86,1.86,0,0,0,675,0h-2.36V25.84h48.12ZM183.34,375h16V348h-16Zm-20.9,57h16V380h-16Zm.05-203.54h15.92V197.72H162.49Zm-.05,51.88h16V250.73h-16Zm0,94.71h16V348h-16Zm0-53.11h16V285.24h-16Zm20.9,0h16V285.24h-16Zm0,110.06h16V380h-16Zm0-151.66h16V250.73h-16ZM110.6,197.72H99.2v30.71h11.4Zm88.66,30.71V197.72H183.34v30.71Zm80.27,0V197.72H268v30.71ZM110.6,285.24H99.2v36.67h11.4ZM99.2,432h11.4V380H99.2Zm0-57h11.4V348H99.2ZM304,153.6h-4.41a1.49,1.49,0,0,0-1.49,1.49v14.53H289V155.09a1.49,1.49,0,0,0-1.49-1.49h-7.7a1.49,1.49,0,0,0-1.49,1.49v14.53h-11V155.09a1.49,1.49,0,0,0-1.49-1.49h-7.69a1.49,1.49,0,0,0-1.49,1.49v14.53H242.78V155.09a1.49,1.49,0,0,0-1.49-1.49H233.6a1.5,1.5,0,0,0-1.5,1.49v14.53H218.51V155.09A1.49,1.49,0,0,0,217,153.6h-7.7a1.49,1.49,0,0,0-1.49,1.49v14.53H193.59V155.09a1.49,1.49,0,0,0-1.49-1.49h-7.69a1.49,1.49,0,0,0-1.49,1.49v14.53H170V155.09a1.5,1.5,0,0,0-1.5-1.49h-7.69a1.49,1.49,0,0,0-1.49,1.49v14.53H147.9V155.09a1.49,1.49,0,0,0-1.49-1.49h-6.47a1.49,1.49,0,0,0-1.49,1.49v14.53h-10.7V155.09a1.49,1.49,0,0,0-1.49-1.49h-6.47a1.5,1.5,0,0,0-1.5,1.49v14.53h-5.88V155.09a1.49,1.49,0,0,0-1.49-1.49h-3a1.5,1.5,0,0,0-1.5,1.49v14.53H103V155.09a1.5,1.5,0,0,0-3,0v14.53H97.39V155.09a1.49,1.49,0,0,0-1.49-1.49H94.58v36.52H304ZM110.6,250.73H99.2v29.58h11.4Zm221.15,47.55h16.32V255.79H331.75Zm602.66,0h12V255.79h-12Zm-16.92,0h12V255.79h-12ZM934.41,375h12V348h-12ZM917.49,250.86h12V228h-12ZM934.41,432h12V380h-12Zm12-204h-12v22.9h12Zm28.18,204h4.93V309.5h-4.93ZM965.66,155.6v14.16h-9.84V155.6a1.86,1.86,0,0,0-1.86-1.86h-7a1.86,1.86,0,0,0-1.86,1.86v14.16h-9.84V155.6a1.87,1.87,0,0,0-1.86-1.86h-6.07a1.86,1.86,0,0,0-1.86,1.86v14.16h-9.84V155.6a1.86,1.86,0,0,0-1.86-1.86h-5.14a1.87,1.87,0,0,0-1.86,1.86v14.16H897V155.6a1.86,1.86,0,0,0-1.86-1.86h-5.77v36.53h85.24V153.74h-7.06A1.87,1.87,0,0,0,965.66,155.6ZM917.85,432h11.63V380H917.85ZM844.53,298.28h16.32V255.79H844.53Zm0,76.74h15.91V348H844.53Zm73.32,0h11.63V348H917.85ZM844.53,250.86h16.32V228H844.53Zm130.06,53.71h4.93V197.72h-4.93ZM884.41,432h4.94V309.5h-4.94Zm0-127.4h4.94V197.72h-4.94Zm203.35,0h4.93V197.72h-4.93ZM844.53,432h15.91V380H844.53ZM524.6,250.86h13.65V228H524.6Zm586.92,47.42h15.75V255.79h-15.75ZM1087.76,432h4.93V309.5h-4.93Zm23.85,0h15.75V380h-15.75Zm-75.5-181.11h16V228h-16ZM1146,153.74h-4.13a1.87,1.87,0,0,0-1.87,1.87v13.94a.21.21,0,0,1-.21.21h-5.19a.21.21,0,0,1-.21-.21V155.61a1.87,1.87,0,0,0-1.87-1.87H1130a1.87,1.87,0,0,0-1.87,1.87v14.15h-5.61V155.61a1.87,1.87,0,0,0-1.87-1.87h-2.47a1.87,1.87,0,0,0-1.87,1.87v14.15h-5.62V155.61a1.87,1.87,0,0,0-1.87-1.87h-2.46a1.88,1.88,0,0,0-1.88,1.87v14.15h-5.61V155.61a1.87,1.87,0,0,0-1.87-1.87s-4.34-.11-4.34,0v36.52h53.5V154A.21.21,0,0,0,1146,153.74Zm-58.22,0H1081a1.87,1.87,0,0,0-1.87,1.87v14.15h-14.23V155.57a1.87,1.87,0,0,0-1.87-1.87h-6.93a1.87,1.87,0,0,0-1.87,1.87v14.15H1040V155.57a1.87,1.87,0,0,0-1.87-1.87h-6.93a1.87,1.87,0,0,0-1.87,1.87v14.15h-14.23V155.57a1.87,1.87,0,0,0-1.87-1.87h-6.93a1.87,1.87,0,0,0-1.87,1.87v14.15H990.18V155.57a1.87,1.87,0,0,0-1.87-1.87h-8.79v36.52h108.24ZM1111.61,375h15.75V348h-15.75Zm-96.41,0h16V348h-16Zm0,56.94h16V380h-16Zm0-133.68h16V255.79h-16ZM1036.11,375h15.55V348h-15.55Zm0-76.74h16V255.79h-16Zm0,133.68h15.55V380h-15.55Zm-20.91-181.1h16V228h-16ZM1127.27,228h-15.75v22.9h15.75ZM636.85,309.5l-1.69,8.1h8.32l-1.69-8.1ZM598.9,375h20.31V348H598.9Zm0-124.16h20.83V228H598.9Zm55.72,0h13.65V228H654.62ZM636.85,402.39a32.68,32.68,0,0,1,4.93-4.32V323.8h-4.93Zm17.77-104.11h13.65V255.79H654.62Zm.07,94.4a31.66,31.66,0,0,1,13.5.5V380h-13.5Zm0-17.66h13.5V348h-13.5ZM598.9,298.28h20.83V255.79H598.9ZM550.51,309.5l-1.12,8.1h8.32l-1.12-8.1ZM573.65,432H594V380H573.65Zm-22.57-33.9a32.28,32.28,0,0,1,4.94,4.32V324.78h-4.94ZM573.65,375H594V348H573.65Zm-.52-124.16H594V228H573.13ZM598.9,432h20.31V380H598.9ZM573.13,298.28H594V255.79H573.13ZM678.54,155.42v14.24h-7.68V155.42c0-1-1.11-1.86-2.47-1.86h-6.8c-1.36,0-2.47.83-2.47,1.86v14.24h-7.68v-16.1h-9.66v36.61H681.1V153.56H681C679.64,153.56,678.54,154.39,678.54,155.42Zm85.05,142.86h15.72V255.79H763.59Zm0,76.74h15.3V348h-15.3ZM742.44,250.86h16.22V228H742.44Zm21.15,0h15.72V228H763.59Zm0,181.11h15.3V380h-15.3ZM824,432H839.6V380H824Zm0-133.69H839.6V255.79H824ZM824,375H839.6V348H824ZM707.37,304.57h4.94V30.78h-4.94Zm35.07-6.29h16.22V255.79H742.44ZM707.37,432h4.94V309.5h-4.94Zm-26.23-32a32.61,32.61,0,0,1,4.93,5.37V30.78h-4.93ZM824,250.86H839.6V228H824Zm60.43-97.12h-9.07a1.87,1.87,0,0,0-1.86,1.86v14.16h-12V155.6a1.87,1.87,0,0,0-1.86-1.86h-7a1.86,1.86,0,0,0-1.86,1.86v14.16h-12V155.6a1.86,1.86,0,0,0-1.86-1.86h-7a1.86,1.86,0,0,0-1.86,1.86v14.16H816V155.6a1.86,1.86,0,0,0-1.86-1.86h-7a1.87,1.87,0,0,0-1.86,1.86v14.16h-12V155.6a1.87,1.87,0,0,0-1.87-1.86h-7a1.86,1.86,0,0,0-1.86,1.86v14.16h-12V155.6a1.86,1.86,0,0,0-1.86-1.86h-7a1.86,1.86,0,0,0-1.86,1.86v14.16h-12V155.6a1.86,1.86,0,0,0-1.86-1.86h-7a1.86,1.86,0,0,0-1.86,1.86v14.16h-12V155.6a1.86,1.86,0,0,0-1.86-1.86h-4.42v36.53H884.41ZM742.44,375h16.22V348H742.44Zm0,57h16.22V380H742.44Z"/></g></svg>